<?xml version="1.0" encoding="utf-8"?>
<!-- Generator: Adobe Illustrator 16.0.0, SVG Export Plug-In . SVG Version: 6.00 Build 0)  -->
<!DOCTYPE svg PUBLIC "-//W3C//DTD SVG 1.1//EN" "http://www.w3.org/Graphics/SVG/1.1/DTD/svg11.dtd">
<svg version="1.1" id="Layer_1" xmlns="http://www.w3.org/2000/svg" xmlns:xlink="http://www.w3.org/1999/xlink" x="0px" y="0px"
	 width="100px" height="100px" viewBox="0 0 100 100" enable-background="new 0 0 100 100" xml:space="preserve">
<g id="Layer_1_1_" display="none">
	<g display="inline">
		<path d="M59.627,27.807H40.374c-1.587,0-2.874,1.287-2.874,2.873v38.638c0,1.59,1.287,2.875,2.874,2.875h19.253
			c1.588,0,2.873-1.285,2.873-2.875V30.68C62.5,29.093,61.215,27.807,59.627,27.807z M47.415,29.566h5.173
			c0.237,0,0.43,0.193,0.43,0.432c0,0.238-0.19,0.431-0.43,0.431h-5.173c-0.238,0-0.431-0.193-0.431-0.431
			C46.983,29.76,47.177,29.566,47.415,29.566z M51.677,70.756c0,0.316-0.257,0.573-0.573,0.573h-2.205
			c-0.317,0-0.575-0.257-0.575-0.573v-2.203c0-0.318,0.258-0.574,0.575-0.574h2.205c0.316,0,0.573,0.258,0.573,0.574V70.756z
			 M61.83,67.212H38.171V32.249h23.66L61.83,67.212L61.83,67.212z"/>
		<g>
			<g>
				<path d="M60.834,47.07c-0.009-0.225-0.102-0.438-0.261-0.597c-0.171-0.171-0.408-0.263-0.655-0.261
					c-0.923,0.031-1.65,0.808-1.623,1.731l0.055,1.681l-0.312,1.263c-0.036-0.004-0.07-0.01-0.106-0.01
					c-0.318,0-0.617,0.123-0.842,0.348l-1.878,1.879l-0.681,0.117c-0.389,0.064-0.756,0.254-1.033,0.533l-1.273,1.273
					c-0.352,0.353-0.552,0.818-0.563,1.313l-0.049,2.215c-0.229,0.061-0.442,0.17-0.617,0.34c-0.264,0.258-0.41,0.603-0.414,0.969
					l-0.03,2.764c-0.004,0.367,0.136,0.713,0.396,0.977c0.257,0.265,0.601,0.412,0.967,0.414l4.586,0.051c0.005,0,0.01,0,0.017,0
					c0.359,0,0.701-0.141,0.961-0.396c0.264-0.258,0.412-0.603,0.414-0.968l0.029-2.764c0.008-0.635-0.419-1.172-1.002-1.338
					l0.023-0.172c0.074-0.498,0.303-0.947,0.656-1.305l2.15-2.15c0.527-0.527,0.863-1.228,0.939-1.965l0.229-2.168
					c0.016-0.078,0.023-0.16,0.025-0.244v-0.004c0,0,0-0.002,0-0.004c0-0.011,0.002-0.021,0.002-0.029L60.834,47.07z M57.418,59.938
					L57.389,62.7c-0.002,0.233-0.097,0.45-0.264,0.614c-0.168,0.166-0.393,0.254-0.621,0.252l-4.586-0.049
					c-0.232-0.004-0.451-0.099-0.613-0.267c-0.164-0.167-0.255-0.39-0.252-0.62l0.03-2.764c0.002-0.23,0.097-0.451,0.263-0.615
					c0.166-0.161,0.381-0.251,0.611-0.251c0.003,0,0.007,0,0.01,0l4.585,0.049C57.035,59.057,57.423,59.453,57.418,59.938z
					 M59.396,54.623l-2.151,2.15c-0.433,0.433-0.707,0.979-0.797,1.584l-0.028,0.19l-4.304-0.047l0.048-2.149
					c0.009-0.365,0.156-0.711,0.416-0.972l1.273-1.272c0.207-0.205,0.477-0.346,0.764-0.396l0.761-0.131
					c0.009-0.002,0.015-0.009,0.022-0.011c0.018-0.006,0.033-0.01,0.049-0.02c0.016-0.008,0.029-0.017,0.042-0.027
					c0.007-0.006,0.015-0.008,0.021-0.014l1.937-1.938c0.259-0.258,0.714-0.258,0.972,0c0.27,0.27,0.27,0.705,0,0.973l-2.222,2.223
					c-0.099,0.1-0.099,0.256,0,0.354c0.049,0.048,0.11,0.073,0.177,0.073s0.129-0.025,0.178-0.073l2.223-2.224
					c0.465-0.463,0.465-1.217,0-1.68c-0.074-0.076-0.162-0.138-0.254-0.189l0.326-1.324c0.004-0.011,0.002-0.022,0.002-0.034
					c0.002-0.011,0.008-0.022,0.006-0.034l-0.057-1.715c-0.021-0.648,0.491-1.193,1.139-1.215c0.106-0.005,0.211,0.038,0.287,0.114
					c0.068,0.071,0.108,0.162,0.111,0.261l0.109,3.475l-0.252,2.398C60.125,53.585,59.843,54.176,59.396,54.623z"/>
				<circle cx="56.379" cy="60.282" r="0.65"/>
				<path d="M49.008,58.896c-0.175-0.172-0.387-0.283-0.617-0.342l-0.049-2.215c-0.012-0.494-0.211-0.962-0.563-1.313l-1.273-1.272
					c-0.279-0.278-0.646-0.469-1.033-0.534l-0.681-0.117l-1.879-1.879c-0.224-0.225-0.522-0.347-0.84-0.347
					c-0.036,0-0.071,0.007-0.106,0.009l-0.313-1.262l0.055-1.682c0.028-0.923-0.7-1.7-1.625-1.73
					c-0.241-0.004-0.481,0.089-0.652,0.261c-0.16,0.16-0.252,0.372-0.261,0.598l-0.111,3.495c0,0.011,0.001,0.021,0.001,0.031l0,0
					V50.6c0,0.084,0.009,0.166,0.026,0.248l0.229,2.166c0.078,0.738,0.411,1.438,0.94,1.965l2.151,2.151
					c0.355,0.354,0.582,0.806,0.655,1.302l0.025,0.174c-0.583,0.166-1.008,0.703-1.001,1.338l0.029,2.765
					c0.004,0.364,0.151,0.71,0.415,0.968c0.26,0.254,0.601,0.395,0.961,0.395c0.006,0,0.011,0,0.016,0l4.586-0.049
					c0.366-0.004,0.71-0.15,0.967-0.414c0.258-0.266,0.398-0.609,0.395-0.978l-0.029-2.764
					C49.419,59.496,49.272,59.152,49.008,58.896z M42.76,56.773l-2.151-2.15c-0.448-0.447-0.73-1.038-0.795-1.663l-0.253-2.399
					l0.111-3.472c0.004-0.101,0.043-0.191,0.114-0.262c0.075-0.076,0.178-0.12,0.284-0.114c0.647,0.021,1.158,0.566,1.139,1.215
					l-0.056,1.715c-0.001,0.012,0.004,0.023,0.005,0.035c0.001,0.011-0.001,0.022,0.001,0.034l0.327,1.325
					c-0.091,0.052-0.178,0.111-0.254,0.188c-0.463,0.463-0.463,1.217,0,1.68l2.222,2.225c0.048,0.049,0.113,0.073,0.177,0.073
					s0.128-0.024,0.177-0.073c0.098-0.1,0.098-0.257,0-0.354l-2.222-2.221c-0.268-0.27-0.268-0.705,0-0.975
					c0.258-0.26,0.714-0.26,0.973,0l1.934,1.938c0.006,0.006,0.015,0.01,0.021,0.014c0.013,0.011,0.026,0.021,0.042,0.027
					c0.015,0.01,0.031,0.014,0.048,0.02c0.008,0.003,0.015,0.008,0.023,0.01l0.761,0.133c0.287,0.047,0.557,0.188,0.762,0.393
					l1.273,1.273c0.261,0.262,0.408,0.604,0.417,0.971l0.048,2.15l-4.304,0.047l-0.028-0.191
					C43.467,57.753,43.191,57.206,42.76,56.773z M48.7,63.252c-0.164,0.168-0.382,0.262-0.615,0.264L43.5,63.566
					c-0.241,0-0.453-0.088-0.621-0.252c-0.167-0.164-0.262-0.383-0.264-0.614l-0.029-2.763c-0.005-0.483,0.383-0.881,0.866-0.888
					l4.585-0.049c0.003,0,0.006,0,0.01,0c0.229,0,0.445,0.09,0.611,0.25c0.167,0.165,0.262,0.386,0.265,0.616l0.029,2.764
					C48.953,62.863,48.865,63.085,48.7,63.252z"/>
				<circle cx="43.625" cy="60.282" r="0.65"/>
			</g>
			<path d="M49.091,42.682c-0.102-0.103-0.29-0.103-0.392,0.017l-1.244,1.312c-0.102,0.103-0.102,0.273,0,0.375l1.244,1.313
				c0.051,0.05,0.119,0.085,0.205,0.085c0.068,0,0.137-0.017,0.188-0.068c0.103-0.103,0.119-0.273,0.017-0.392L48.052,44.2
				l1.057-1.125C49.211,42.971,49.211,42.784,49.091,42.682z M52.551,44.011l-1.244-1.312c-0.102-0.102-0.271-0.119-0.392-0.017
				c-0.103,0.102-0.119,0.272-0.019,0.391l1.059,1.125l-1.059,1.125c-0.103,0.103-0.103,0.289,0.019,0.392
				c0.051,0.051,0.119,0.068,0.188,0.068c0.067,0,0.151-0.035,0.203-0.085l1.243-1.313C52.652,44.284,52.652,44.113,52.551,44.011z
				 M50.607,42.647c-0.135-0.05-0.308,0.017-0.357,0.153l-0.988,2.591c-0.051,0.136,0.017,0.306,0.153,0.357
				c0.034,0.018,0.068,0.018,0.102,0.018c0.102,0,0.222-0.068,0.256-0.17l0.988-2.59C50.813,42.852,50.744,42.699,50.607,42.647z
				 M56.932,39.7c-0.018-0.034-0.035-0.069-0.052-0.086c-1.481-2.198-3.987-3.664-6.834-3.681c0,0,0,0-0.017,0h-0.017l0,0h-0.035
				l0,0l0,0H49.96c-0.017,0-0.017,0-0.034,0c-2.812,0.034-5.3,1.483-6.766,3.664c-0.034,0.034-0.051,0.068-0.068,0.103
				c-0.834,1.294-1.329,2.829-1.329,4.482c0,1.653,0.494,3.187,1.329,4.481c0.018,0.034,0.034,0.086,0.068,0.102
				c1.466,2.182,3.954,3.631,6.766,3.667c0.017,0,0.017,0,0.034,0h0.017l0,0l0,0h0.068c0,0,0,0,0.017,0
				c2.846-0.019,5.352-1.467,6.834-3.682c0.017-0.018,0.033-0.052,0.051-0.086c0.853-1.294,1.347-2.846,1.347-4.499
				C58.277,42.545,57.782,40.994,56.932,39.7z M57.715,43.926h-2.931c-0.034-1.38-0.324-2.692-0.818-3.851h2.558
				C57.236,41.199,57.664,42.512,57.715,43.926z M56.146,39.529h-2.42c-0.613-1.21-1.449-2.232-2.473-2.948
				C53.232,36.905,54.971,37.996,56.146,39.529z M50.25,36.632c1.176,0.596,2.146,1.619,2.846,2.897H50.25V36.632z M50.25,40.075
				h3.119c0.511,1.142,0.816,2.454,0.869,3.851h-0.428c-0.103-1.449-1.004-2.709-2.367-3.255c-0.375-0.154-0.77-0.239-1.176-0.255
				v-0.341H50.25z M54.238,44.471c-0.034,1.398-0.342,2.71-0.854,3.852H50.3v-0.34c1.875-0.137,3.375-1.637,3.511-3.512H54.238
				L54.238,44.471z M46.927,39.529c0.682-1.261,1.636-2.267,2.778-2.863v2.863H46.927z M49.705,40.075v0.341
				c-1.79,0.135-3.255,1.516-3.477,3.322c0,0.069-0.017,0.136-0.017,0.205h-0.426c0.034-1.38,0.341-2.709,0.869-3.852h3.051V40.075z
				 M48.768,36.581c-1.023,0.698-1.858,1.722-2.472,2.948h-2.42C45.053,37.996,46.791,36.905,48.768,36.581z M43.502,40.075h2.556
				c-0.495,1.159-0.784,2.471-0.818,3.851h-2.931C42.36,42.512,42.787,41.199,43.502,40.075z M42.309,44.471h2.931
				c0.034,1.381,0.324,2.693,0.801,3.852h-2.54C42.787,47.198,42.36,45.885,42.309,44.471z M43.894,48.868h2.419
				c0.614,1.21,1.449,2.231,2.471,2.931C46.791,51.492,45.053,50.401,43.894,48.868z M49.756,51.766
				c-1.176-0.597-2.147-1.603-2.829-2.879h2.829V51.766z M49.756,48.322h-3.102c-0.511-1.141-0.818-2.454-0.852-3.852h0.426
				c0.137,1.875,1.636,3.392,3.528,3.512V48.322L49.756,48.322z M50.012,47.453c-1.79,0-3.255-1.465-3.255-3.254
				c0-0.136,0-0.273,0.017-0.409c0.205-1.62,1.585-2.847,3.238-2.847c0.425,0,0.833,0.085,1.21,0.239
				c1.242,0.494,2.043,1.687,2.043,3.017C53.268,45.988,51.801,47.453,50.012,47.453z M50.301,48.868h2.813
				c-0.683,1.261-1.653,2.282-2.813,2.879V48.868z M51.256,51.816c1.021-0.699,1.858-1.721,2.471-2.948h2.422
				C54.971,50.401,53.232,51.492,51.256,51.816z M56.521,48.322h-2.539c0.494-1.159,0.783-2.471,0.802-3.852h2.93
				C57.664,45.885,57.236,47.198,56.521,48.322z"/>
		</g>
	</g>
</g>
<g id="Layer_2">
	<g>
		<path fill="#FFFFFF" d="M49.06,72.527c11.683,0,21.155-9.459,21.155-21.125v-0.188c0-0.694-0.565-1.263-1.264-1.263H50.513V31.539
			c0-0.693-0.568-1.261-1.263-1.261h-0.19c-11.681,0-21.153,9.459-21.153,21.125C27.906,63.068,37.378,72.527,49.06,72.527z
			 M47.987,32.862v18.352c0,0.694,0.568,1.263,1.263,1.263h18.377c-0.569,9.773-8.651,17.529-18.566,17.529
			c-10.293,0-18.628-8.324-18.628-18.604C30.431,41.503,38.199,33.367,47.987,32.862z"/>
		<path fill="#FFFFFF" d="M53.952,27.489c-0.379-0.064-0.758,0.063-1.012,0.315c-0.252,0.253-0.439,0.567-0.439,0.946v17.026
			c0,0.692,0.566,1.261,1.264,1.261h17.049c0.377,0,0.694-0.19,0.947-0.441c0.254-0.253,0.379-0.63,0.315-1.008v-0.19
			c-1.326-9.206-8.651-16.522-17.871-17.846L53.952,27.489z M55.089,30.264c7.135,1.513,12.756,7.125,14.271,14.25H55.089V30.264z"
			/>
	</g>
</g>
</svg>
